<?xml version="1.0" encoding="UTF-8"?>
<svg id="Calque_2" data-name="Calque 2" xmlns="http://www.w3.org/2000/svg" viewBox="0 0 413.46 545.8">
  <defs>
    <style>
      .cls-1, .cls-2, .cls-3 {
        fill: none;
        stroke: #000;
        stroke-miterlimit: 10;
      }

      .cls-2 {
        stroke-width: 2px;
      }

      .cls-3 {
        stroke-width: 5px;
      }
    </style>
  </defs>
  <g id="Calque_1-2" data-name="Calque 1">
    <path d="M12.57,14.56c0-2.54,1.43-3.14,3.83-3.14h3.13c3.79,0,4.28.82,4.26,3.27h-2.66v-.24c0-.62-.46-.8-1.25-.8h-2.9c-1.4,0-1.67.66-1.67,1.74v.94c0,1.26.26,1.74,1.52,1.74h2.84c1.2,0,1.56-.12,1.56-1.2h2.66v.82c0,1.46-.53,2.61-3.2,2.61h-4.29c-2.4,0-3.83-.6-3.83-3.14v-2.59Z"/>
    <g>
      <path d="M167.71,502.36h4.87v.85h-3.86v2.46h3.26v.85h-3.26v2.85h3.98v.85h-4.99v-7.87Z"/>
      <path d="M174.52,502.36h1.1l2.52,4.94.76,1.63h.02c-.04-.78-.13-1.67-.13-2.5v-4.08h.96v7.87h-1.1l-2.52-4.94-.76-1.63h-.02c.04.8.13,1.64.13,2.46v4.11h-.96v-7.87Z"/>
      <path d="M183.84,503.21h-2.6v-.85h6.21v.85h-2.6v7.02h-1.01v-7.02Z"/>
      <path d="M189.13,502.36h2.46c1.6,0,2.76.58,2.76,2.22s-1.16,2.33-2.76,2.33h-1.44v3.32h-1.02v-7.87ZM191.44,506.09c1.22,0,1.9-.5,1.9-1.51s-.67-1.4-1.9-1.4h-1.29v2.91h1.29ZM192.17,506.1l2.4,4.13h-1.14l-2.05-3.6.79-.53Z"/>
      <path d="M196.51,502.36h4.87v.85h-3.86v2.46h3.26v.85h-3.26v2.85h3.98v.85h-4.99v-7.87ZM198.32,501.36l1.7-1.55.56.67-1.82,1.38-.44-.5Z"/>
      <path d="M203.71,502.36h4.87v.85h-3.86v2.46h3.26v.85h-3.26v2.85h3.98v.85h-4.99v-7.87Z"/>
    </g>
    <g>
      <path d="M27.5,287.77h1.08l1.26,4.25c.28.92.47,1.68.75,2.59h.05c.29-.91.49-1.67.75-2.59l1.26-4.25h1.03l-2.5,7.87h-1.17l-2.52-7.87Z"/>
      <path d="M35.56,287.77h4.87v.85h-3.86v2.46h3.26v.85h-3.26v2.85h3.98v.85h-4.99v-7.87Z"/>
      <path d="M42.2,294.62l.6-.7c.6.59,1.42.97,2.3.97,1.08,0,1.7-.52,1.7-1.24,0-.84-.61-1.08-1.4-1.42l-1.14-.5c-.78-.31-1.69-.86-1.69-2.03s1.08-2.09,2.58-2.09c.98,0,1.85.4,2.42.97l-.53.65c-.52-.46-1.12-.73-1.93-.73-.91,0-1.52.43-1.52,1.14,0,.76.73,1.03,1.4,1.29l1.1.49c.97.38,1.74.94,1.74,2.1,0,1.25-1.06,2.24-2.78,2.24-1.15,0-2.15-.46-2.85-1.16Z"/>
      <path d="M51.69,288.63h-2.6v-.85h6.21v.85h-2.6v7.02h-1.01v-7.02Z"/>
      <path d="M56.94,294.79h1.96v-6.16h-1.96v-.85h4.92v.85h-1.96v6.16h1.96v.85h-4.92v-.85Z"/>
      <path d="M66.02,287.77h1.15l2.65,7.87h-1.08l-1.36-4.39c-.28-.88-.54-1.74-.78-2.65h-.05c-.25.91-.5,1.78-.78,2.65l-1.38,4.39h-1.03l2.65-7.87ZM64.77,292.44h3.61v.82h-3.61v-.82Z"/>
      <path d="M71.34,294.79h1.96v-6.16h-1.96v-.85h4.92v.85h-1.96v6.16h1.96v.85h-4.92v-.85Z"/>
      <path d="M78.59,287.77h2.46c1.6,0,2.76.58,2.76,2.22s-1.16,2.33-2.76,2.33h-1.44v3.32h-1.02v-7.87ZM80.9,291.5c1.22,0,1.9-.5,1.9-1.51s-.67-1.4-1.9-1.4h-1.29v2.91h1.29ZM81.63,291.52l2.4,4.12h-1.14l-2.05-3.6.79-.53Z"/>
      <path d="M85.96,287.77h4.87v.85h-3.86v2.46h3.26v.85h-3.26v2.85h3.98v.85h-4.99v-7.87Z"/>
    </g>
    <g>
      <line class="cls-2" x1="188.22" y1="545.8" x2="188.22" y2="530.99"/>
      <polyline class="cls-2" points="182.96 536.11 188.19 530.88 193.44 536.13"/>
    </g>
    <g>
      <line class="cls-2" x1="230.51" y1="342.91" x2="230.51" y2="328.1"/>
      <polyline class="cls-2" points="225.25 333.22 230.48 327.99 235.73 333.24"/>
    </g>
    <g>
      <line class="cls-2" x1="65.46" y1="258.18" x2="65.46" y2="243.37"/>
      <polyline class="cls-2" points="60.2 248.49 65.43 243.26 70.68 248.51"/>
    </g>
    <g>
      <line class="cls-2" x1="390.47" y1="231.2" x2="390.47" y2="246.01"/>
      <polyline class="cls-2" points="385.21 240.89 390.44 246.12 395.69 240.87"/>
    </g>
    <g>
      <line class="cls-2" x1="352.92" y1="492.72" x2="352.92" y2="507.54"/>
      <polyline class="cls-2" points="347.66 502.41 352.89 507.64 358.14 502.4"/>
    </g>
    <g>
      <line class="cls-2" x1="223.03" y1="225.5" x2="237.85" y2="225.5"/>
      <polyline class="cls-2" points="232.73 220.24 237.95 225.47 232.71 230.72"/>
    </g>
    <polyline class="cls-3" points="2.54 439.07 2.54 2.5 139.11 2.5"/>
    <line class="cls-3" x1="238.12" y1="2.5" x2="238.12" y2="205.93"/>
    <line class="cls-3" x1="2.53" y1="246.12" x2="50.16" y2="246.12"/>
    <line class="cls-3" x1="294.35" y1="243.9" x2="294.35" y2="330.88"/>
    <line class="cls-3" x1="294.35" y1="330.88" x2="294.35" y2="509.45"/>
    <line class="cls-3" x1="84.83" y1="436.6" x2="84.83" y2="509.45"/>
    <line class="cls-3" x1="410.83" y1="0" x2="410.83" y2="509.45"/>
    <line class="cls-3" x1="82.54" y1="246.12" x2="294.35" y2="246.12"/>
    <line class="cls-3" x1="117.59" y1="2.5" x2="412.32" y2="2.5"/>
    <line class="cls-3" x1="245.59" y1="327.94" x2="294.35" y2="327.94"/>
    <line class="cls-3" x1="4.54" y1="327.94" x2="213.97" y2="327.94"/>
    <line class="cls-3" x1="294.92" y1="246.12" x2="369.4" y2="246.12"/>
    <line class="cls-3" x1="292.34" y1="507.13" x2="337.65" y2="507.13"/>
    <line class="cls-3" x1="368.15" y1="507.13" x2="413.46" y2="507.13"/>
    <line class="cls-3" x1="0" y1="439.07" x2="84.83" y2="439.07"/>
    <circle cx="16.96" cy="291.24" r="3.61"/>
    <g>
      <path d="M65.83,41.37l.6-.7c.6.59,1.42.97,2.3.97,1.08,0,1.7-.52,1.7-1.24,0-.84-.61-1.08-1.4-1.42l-1.14-.5c-.78-.31-1.69-.86-1.69-2.03s1.08-2.09,2.58-2.09c.98,0,1.85.4,2.42.97l-.53.65c-.52-.46-1.12-.73-1.93-.73-.91,0-1.52.43-1.52,1.14,0,.76.73,1.03,1.4,1.3l1.1.49c.97.38,1.74.94,1.74,2.1,0,1.25-1.06,2.24-2.78,2.24-1.15,0-2.15-.46-2.85-1.16Z"/>
      <path d="M75.25,34.52h1.15l2.65,7.87h-1.08l-1.36-4.39c-.28-.88-.54-1.74-.78-2.65h-.05c-.25.91-.5,1.77-.78,2.65l-1.38,4.39h-1.03l2.65-7.87ZM74,39.19h3.61v.82h-3.61v-.82Z"/>
      <path d="M81.03,34.52h1v7.02h3.89v.85h-4.88v-7.87Z"/>
      <path d="M88.23,34.52h1v7.02h3.89v.85h-4.88v-7.87Z"/>
      <path d="M95.19,34.52h4.87v.85h-3.86v2.46h3.26v.85h-3.26v2.85h3.98v.85h-4.99v-7.87Z"/>
      <path d="M109.27,34.52h1.94c2.36,0,3.65,1.4,3.65,3.9s-1.28,3.97-3.6,3.97h-1.99v-7.87ZM111.14,41.56c1.79,0,2.67-1.15,2.67-3.14s-.89-3.07-2.67-3.07h-.86v6.21h.86Z"/>
      <path d="M116.79,34.52h4.87v.85h-3.86v2.46h3.26v.85h-3.26v2.85h3.98v.85h-4.99v-7.87Z"/>
      <path d="M132.92,35.37h-2.6v-.85h6.21v.85h-2.6v7.02h-1.01v-7.02Z"/>
      <path d="M138.21,34.52h2.46c1.59,0,2.76.58,2.76,2.22s-1.16,2.33-2.76,2.33h-1.44v3.32h-1.02v-7.87ZM140.53,38.25c1.22,0,1.9-.5,1.9-1.51s-.67-1.4-1.9-1.4h-1.29v2.92h1.29ZM141.26,38.26l2.4,4.13h-1.14l-2.05-3.6.79-.53Z"/>
      <path d="M147.25,34.52h1.15l2.65,7.87h-1.08l-1.36-4.39c-.28-.88-.54-1.74-.78-2.65h-.05c-.25.91-.5,1.77-.78,2.65l-1.38,4.39h-1.03l2.65-7.87ZM146,39.19h3.61v.82h-3.61v-.82Z"/>
      <path d="M151.93,34.52h1.08l1.26,4.25c.28.92.47,1.68.75,2.59h.05c.29-.91.49-1.67.75-2.59l1.26-4.25h1.03l-2.5,7.87h-1.17l-2.52-7.87Z"/>
      <path d="M161.65,34.52h1.15l2.65,7.87h-1.08l-1.36-4.39c-.28-.88-.54-1.74-.78-2.65h-.05c-.25.91-.5,1.77-.78,2.65l-1.38,4.39h-1.03l2.65-7.87ZM160.4,39.19h3.61v.82h-3.61v-.82Z"/>
      <path d="M166.97,41.54h1.96v-6.17h-1.96v-.85h4.92v.85h-1.96v6.17h1.96v.85h-4.92v-.85Z"/>
      <path d="M174.64,34.52h1v7.02h3.89v.85h-4.88v-7.87Z"/>
    </g>
    <circle cx="54.99" cy="37.98" r="3.61"/>
    <g>
      <path d="M298.17,137.38h2.23c1.61,0,2.7.54,2.7,1.92,0,.78-.44,1.48-1.38,1.71v.05c1.15.18,1.82.8,1.82,1.88,0,1.55-1.2,2.3-2.96,2.3h-2.41v-7.87ZM300.23,140.69c1.34,0,1.88-.43,1.88-1.31s-.62-1.16-1.83-1.16h-1.12v2.47h1.07ZM300.44,144.41c1.34,0,2.12-.44,2.12-1.51,0-.97-.74-1.37-2.12-1.37h-1.27v2.88h1.27Z"/>
      <path d="M307.21,137.38h1.15l2.65,7.87h-1.08l-1.36-4.39c-.28-.88-.54-1.74-.78-2.65h-.05c-.25.91-.5,1.77-.78,2.65l-1.38,4.39h-1.03l2.65-7.87ZM305.96,142.04h3.61v.82h-3.61v-.82Z"/>
      <path d="M312.16,141.31c0-2.53,1.48-4.08,3.53-4.08.95,0,1.69.46,2.16.96l-.58.64c-.41-.43-.92-.71-1.58-.71-1.5,0-2.48,1.21-2.48,3.17s.98,3.21,2.48,3.21c.72,0,1.27-.31,1.76-.86l.58.61c-.61.72-1.39,1.14-2.43,1.14-1.94,0-3.43-1.51-3.43-4.08Z"/>
      <path d="M319.75,137.38h1.02v3.93h.04l3.3-3.93h1.15l-4.49,5.36v2.51h-1.02v-7.87ZM321.98,140.86l.61-.79,2.95,5.18h-1.14l-2.42-4.39Z"/>
      <path d="M326.8,140.92h5.16v.74h-5.16v-.74Z"/>
      <path d="M334.35,137.38h4.87v.85h-3.86v2.46h3.26v.85h-3.26v2.85h3.98v.85h-4.99v-7.87Z"/>
      <path d="M341.17,137.38h1.1l2.52,4.94.76,1.63h.02c-.04-.78-.13-1.67-.13-2.49v-4.08h.96v7.87h-1.1l-2.52-4.94-.76-1.63h-.02c.04.8.13,1.64.13,2.46v4.11h-.96v-7.87Z"/>
      <path d="M348.43,137.38h1.94c2.36,0,3.65,1.4,3.65,3.9s-1.28,3.97-3.6,3.97h-1.99v-7.87ZM350.3,144.42c1.79,0,2.67-1.15,2.67-3.14s-.89-3.07-2.67-3.07h-.86v6.21h.86Z"/>
    </g>
    <circle cx="286.95" cy="140.84" r="3.61"/>
    <g>
      <path d="M329.13,372.76h4.87v.85h-3.86v2.46h3.26v.85h-3.26v2.85h3.98v.85h-4.99v-7.87Z"/>
      <path d="M335.77,379.61l.6-.7c.6.59,1.42.97,2.3.97,1.08,0,1.7-.52,1.7-1.24,0-.84-.61-1.08-1.4-1.42l-1.14-.5c-.78-.31-1.69-.86-1.69-2.03s1.08-2.09,2.58-2.09c.98,0,1.85.4,2.42.97l-.53.65c-.52-.46-1.12-.73-1.93-.73-.91,0-1.52.43-1.52,1.14,0,.76.73,1.03,1.4,1.3l1.1.49c.97.38,1.74.94,1.74,2.1,0,1.25-1.06,2.24-2.78,2.24-1.15,0-2.15-.46-2.85-1.16Z"/>
      <path d="M343.39,372.76h2.37c1.74,0,2.92.59,2.92,2.32s-1.19,2.43-2.92,2.43h-1.37v3.12h-1.01v-7.87ZM345.65,376.7c1.37,0,2.03-.5,2.03-1.62s-.67-1.5-2.03-1.5h-1.25v3.12h1.25Z"/>
      <path d="M352.39,372.76h1.15l2.65,7.87h-1.08l-1.36-4.39c-.28-.88-.54-1.74-.78-2.65h-.05c-.25.91-.5,1.77-.78,2.65l-1.38,4.39h-1.03l2.65-7.87ZM351.14,377.43h3.61v.82h-3.61v-.82Z"/>
      <path d="M357.35,376.7c0-2.53,1.48-4.08,3.53-4.08.95,0,1.69.46,2.16.96l-.58.64c-.41-.43-.92-.71-1.58-.71-1.5,0-2.48,1.21-2.48,3.17s.98,3.21,2.48,3.21c.72,0,1.27-.31,1.76-.86l.58.61c-.61.72-1.39,1.14-2.43,1.14-1.94,0-3.43-1.51-3.43-4.08Z"/>
      <path d="M365.13,372.76h4.87v.85h-3.86v2.46h3.26v.85h-3.26v2.85h3.98v.85h-4.99v-7.87Z"/>
      <path d="M328.63,387.16h1.22l1.1,3.36.38,1.27h.05l.37-1.27,1.12-3.36h1.22v7.87h-.96v-3.93c0-.77.12-2.11.17-2.78h-.04l-.44,1.54-1.13,3.09h-.72l-1.1-3.09-.46-1.54h-.02c.07.67.17,2.01.17,2.78v3.93h-.94v-7.87Z"/>
      <path d="M336.33,387.16h4.87v.85h-3.86v2.46h3.26v.85h-3.26v2.85h3.98v.85h-4.99v-7.87ZM338.15,386.17l1.7-1.55.56.67-1.82,1.38-.44-.5Z"/>
      <path d="M343.21,387.16h1.94c2.36,0,3.65,1.4,3.65,3.9s-1.28,3.97-3.6,3.97h-1.99v-7.87ZM345.08,394.2c1.79,0,2.67-1.15,2.67-3.14s-.89-3.07-2.67-3.07h-.86v6.21h.86Z"/>
      <path d="M350.51,394.18h1.96v-6.16h-1.96v-.85h4.92v.85h-1.96v6.16h1.96v.85h-4.92v-.85Z"/>
      <path d="M359.59,387.16h1.15l2.65,7.87h-1.08l-1.36-4.39c-.28-.88-.54-1.74-.78-2.65h-.05c-.25.91-.5,1.78-.78,2.65l-1.38,4.39h-1.03l2.65-7.87ZM358.34,391.83h3.61v.82h-3.61v-.82Z"/>
      <path d="M366.86,388.01h-2.6v-.85h6.21v.85h-2.6v7.02h-1.01v-7.02Z"/>
      <path d="M372.11,394.18h1.96v-6.16h-1.96v-.85h4.92v.85h-1.96v6.16h1.96v.85h-4.92v-.85Z"/>
      <path d="M378.74,391.06c0-2.54,1.25-4.04,3.02-4.04s3.02,1.5,3.02,4.04-1.25,4.11-3.02,4.11-3.02-1.54-3.02-4.11ZM383.75,391.06c0-1.98-.79-3.15-1.98-3.15s-1.98,1.18-1.98,3.15.79,3.23,1.98,3.23,1.98-1.21,1.98-3.23Z"/>
      <path d="M386.35,387.16h1.1l2.52,4.94.76,1.63h.02c-.04-.78-.13-1.67-.13-2.5v-4.08h.96v7.87h-1.1l-2.52-4.94-.76-1.63h-.02c.04.8.13,1.64.13,2.46v4.11h-.96v-7.87Z"/>
    </g>
    <circle cx="317.73" cy="376.23" r="3.61"/>
    <g>
      <path d="M111.56,415.04l.6-.7c.6.59,1.42.97,2.3.97,1.08,0,1.7-.52,1.7-1.24,0-.84-.61-1.08-1.4-1.42l-1.14-.5c-.78-.31-1.69-.86-1.69-2.03s1.08-2.09,2.58-2.09c.98,0,1.85.4,2.42.97l-.53.65c-.52-.46-1.12-.73-1.93-.73-.91,0-1.52.43-1.52,1.14,0,.76.73,1.03,1.4,1.3l1.1.49c.97.38,1.74.94,1.74,2.1,0,1.25-1.06,2.24-2.78,2.24-1.15,0-2.15-.46-2.85-1.16Z"/>
      <path d="M120.98,408.19h1.15l2.65,7.87h-1.08l-1.36-4.39c-.28-.88-.54-1.74-.78-2.65h-.05c-.25.91-.5,1.77-.78,2.65l-1.38,4.39h-1.03l2.65-7.87ZM119.73,412.86h3.61v.82h-3.61v-.82Z"/>
      <path d="M126.76,408.19h1v7.02h3.89v.85h-4.88v-7.87Z"/>
      <path d="M133.96,408.19h1v7.02h3.89v.85h-4.88v-7.87Z"/>
      <path d="M140.92,408.19h4.87v.85h-3.86v2.46h3.26v.85h-3.26v2.85h3.98v.85h-4.99v-7.87Z"/>
      <path d="M155,408.19h1.94c2.36,0,3.65,1.4,3.65,3.9s-1.28,3.97-3.6,3.97h-1.99v-7.87ZM156.87,415.23c1.79,0,2.67-1.15,2.67-3.14s-.89-3.07-2.67-3.07h-.86v6.21h.86Z"/>
      <path d="M163.76,411.3c.8-.47,1.26-1.16,1.26-2.08l-.24-.94.66.8c-.2.22-.48.38-.74.38-.5,0-.85-.36-.85-.86,0-.55.37-.94.89-.94.64,0,1.08.54,1.08,1.46,0,1.2-.64,2.18-1.71,2.74l-.34-.58Z"/>
      <path d="M169.5,415.21h1.96v-6.17h-1.96v-.85h4.92v.85h-1.96v6.17h1.96v.85h-4.92v-.85Z"/>
      <path d="M176.54,408.19h1.1l2.52,4.94.76,1.63h.02c-.04-.78-.13-1.67-.13-2.49v-4.08h.96v7.87h-1.1l-2.52-4.94-.76-1.63h-.02c.04.8.13,1.64.13,2.46v4.11h-.96v-7.87Z"/>
      <path d="M185.85,409.04h-2.6v-.85h6.21v.85h-2.6v7.02h-1.01v-7.02Z"/>
      <path d="M191.14,408.19h2.46c1.6,0,2.76.58,2.76,2.22s-1.16,2.33-2.76,2.33h-1.44v3.32h-1.02v-7.87ZM193.46,411.92c1.22,0,1.9-.5,1.9-1.51s-.67-1.4-1.9-1.4h-1.29v2.92h1.29ZM194.19,411.93l2.4,4.13h-1.14l-2.05-3.6.79-.53Z"/>
      <path d="M197.73,412.09c0-2.54,1.25-4.04,3.02-4.04s3.02,1.5,3.02,4.04-1.25,4.11-3.02,4.11-3.02-1.54-3.02-4.11ZM202.73,412.09c0-1.98-.79-3.15-1.98-3.15s-1.98,1.17-1.98,3.15.79,3.23,1.98,3.23,1.98-1.21,1.98-3.23Z"/>
      <path d="M205.4,408.19h1.94c2.36,0,3.65,1.4,3.65,3.9s-1.28,3.97-3.6,3.97h-1.99v-7.87ZM207.27,415.23c1.79,0,2.67-1.15,2.67-3.14s-.89-3.07-2.67-3.07h-.86v6.21h.86Z"/>
      <path d="M212.5,413.08v-4.89h1.02v4.92c0,1.62.71,2.21,1.64,2.21s1.67-.59,1.67-2.21v-4.92h.97v4.89c0,2.25-1.1,3.12-2.64,3.12s-2.66-.86-2.66-3.12Z"/>
      <path d="M219.54,412.12c0-2.53,1.48-4.08,3.53-4.08.95,0,1.69.46,2.16.96l-.58.64c-.41-.43-.92-.71-1.58-.71-1.5,0-2.48,1.21-2.48,3.17s.98,3.21,2.48,3.21c.72,0,1.27-.31,1.76-.86l.58.61c-.61.72-1.39,1.14-2.43,1.14-1.94,0-3.43-1.51-3.43-4.08Z"/>
      <path d="M229.05,409.04h-2.6v-.85h6.21v.85h-2.6v7.02h-1.01v-7.02Z"/>
      <path d="M234.3,415.21h1.96v-6.17h-1.96v-.85h4.92v.85h-1.96v6.17h1.96v.85h-4.92v-.85Z"/>
      <path d="M240.93,412.09c0-2.54,1.25-4.04,3.02-4.04s3.02,1.5,3.02,4.04-1.25,4.11-3.02,4.11-3.02-1.54-3.02-4.11ZM245.93,412.09c0-1.98-.79-3.15-1.98-3.15s-1.98,1.17-1.98,3.15.79,3.23,1.98,3.23,1.98-1.21,1.98-3.23Z"/>
      <path d="M248.54,408.19h1.1l2.52,4.94.76,1.63h.02c-.04-.78-.13-1.67-.13-2.49v-4.08h.96v7.87h-1.1l-2.52-4.94-.76-1.63h-.02c.04.8.13,1.64.13,2.46v4.11h-.96v-7.87Z"/>
      <path d="M267.08,407.54h.89l-3.93,10.43h-.89l3.93-10.43Z"/>
      <path d="M111.26,419.19h1.08l1.26,4.25c.28.92.47,1.68.75,2.59h.05c.29-.91.49-1.67.75-2.59l1.26-4.25h1.03l-2.5,7.87h-1.17l-2.52-7.87Z"/>
      <path d="M119.09,426.21h1.96v-6.17h-1.96v-.85h4.92v.85h-1.96v6.17h1.96v.85h-4.92v-.85Z"/>
      <path d="M125.96,426.04l.6-.7c.6.59,1.42.97,2.3.97,1.08,0,1.7-.52,1.7-1.24,0-.84-.61-1.08-1.4-1.42l-1.14-.5c-.78-.31-1.69-.86-1.69-2.03s1.08-2.09,2.58-2.09c.98,0,1.85.4,2.42.97l-.53.65c-.52-.46-1.12-.73-1.93-.73-.91,0-1.52.43-1.52,1.14,0,.76.73,1.03,1.4,1.3l1.1.49c.97.38,1.74.94,1.74,2.1,0,1.25-1.06,2.24-2.78,2.24-1.15,0-2.15-.46-2.85-1.16Z"/>
      <path d="M133.49,426.21h1.96v-6.17h-1.96v-.85h4.92v.85h-1.96v6.17h1.96v.85h-4.92v-.85Z"/>
      <path d="M140.13,423.09c0-2.54,1.25-4.04,3.02-4.04s3.02,1.5,3.02,4.04-1.25,4.11-3.02,4.11-3.02-1.54-3.02-4.11ZM145.13,423.09c0-1.98-.79-3.15-1.98-3.15s-1.98,1.17-1.98,3.15.79,3.23,1.98,3.23,1.98-1.21,1.98-3.23Z"/>
      <path d="M147.74,419.19h1.1l2.52,4.94.76,1.63h.02c-.04-.78-.13-1.67-.13-2.49v-4.08h.96v7.87h-1.1l-2.52-4.94-.76-1.63h-.02c.04.8.13,1.64.13,2.46v4.11h-.96v-7.87Z"/>
      <path d="M154.94,419.19h1.1l2.52,4.94.76,1.63h.02c-.04-.78-.13-1.67-.13-2.49v-4.08h.96v7.87h-1.1l-2.52-4.94-.76-1.63h-.02c.04.8.13,1.64.13,2.46v4.11h-.96v-7.87Z"/>
      <path d="M164.18,419.19h1.15l2.65,7.87h-1.08l-1.36-4.39c-.28-.88-.54-1.74-.78-2.65h-.05c-.25.91-.5,1.77-.78,2.65l-1.38,4.39h-1.03l2.65-7.87ZM162.93,423.86h3.61v.82h-3.61v-.82Z"/>
      <path d="M168.99,423.12c0-2.54,1.45-4.08,3.49-4.08,1.04,0,1.73.49,2.17.96l-.58.64c-.37-.4-.84-.71-1.59-.71-1.48,0-2.43,1.21-2.43,3.17s.88,3.21,2.41,3.21c.55,0,1.07-.17,1.36-.46v-2.05h-1.56v-.83h2.5v3.31c-.49.5-1.33.91-2.35.91-1.98,0-3.41-1.51-3.41-4.08Z"/>
      <path d="M176.92,419.19h4.87v.85h-3.86v2.46h3.26v.85h-3.26v2.85h3.98v.85h-4.99v-7.87Z"/>
    </g>
    <circle cx="100.72" cy="411.65" r="3.61"/>
    <path d="M92.57,391.76c0,.46-.7,1.1-1.25,1.1h-18.51c-.57,0-1.2-.59-1.2-1.11v-7.25s-3.75-.14-3.75-.14l.04-13.92,2.07-.04,1.32-2.26c.64-1.09.65-1.48,1.69-2.14,3.56-2.22,3.08-3.54,3.84-3.89.54-.25,1.6.09,2.07.36,1.4-1,4.55-1.03,5.85.35.6-.6,1.59-1.09,2.54-1.01.44.04,1.18.84,1.08,1.24s-.61,1-.97,1.31l-.64.55c-.17.15.4.65.69.71l5.05.97.08,3.81,3.81.08.02,13.93-3.87.09.02,7.26ZM73.96,370.21c1.43-1.6,2.4-3.32,3.07-5.28l1.34-1.95c-.41-.29-1.13-.47-1.27-.22s-.33.95-.43,1.36l-3.51,2.78c-.48.38-1.12,1.6-.71,1.97l1.51,1.33ZM85.5,368.35l2.06.29-3.39-5.3c-.43-.67-1.64-1.07-2.37-.8-.64.24-1.11,1.31-1.23,2.06l-.06.63c-.01.13.38.39.41.26l.19-.86c.04-.18.6-.16.62.02l.08.6.56,2.55c.92-.76,2.21-.77,3.12.57ZM75.64,371.58l4.88-5.37-3.39.38c-.61,1.58-1.95,3.28-2.92,4.21-.29.28.1,1.25.4,1.35.25.08.62-.23,1.03-.58ZM80.33,373.3c1.52-.14,2.05-1.56,1.85-2.75l-.67-4.01c-2.47,1.9-4.94,4.13-6.05,7.21l4.87-.44ZM91.93,370.25l-.14-3.21-4.52-.63c.33,1.02.89,2.27,1.52,2.53l3.15,1.31ZM90.41,375.44l2.45,1.37c-.05-1.83-.05-4.43-1.45-5.8-1.63-1.6-4.28-1.44-6.3-2.26-.62-.25-1.3-1.57-2.25-.21l1.54.98,4.63,3.12,1.23-1.99-.1,1.66.95-.34c.14-.05.13.56-.02.61l-.56.18c-.28.09-.67.93-.45,1.13l.93.81.59.51c.08.07-.37.17-.47.14l-.53-.15-.22.24ZM89.68,373.75c-1.98-1.18-3.51-2.04-5.18-3.48l-1.78-.78.56,2.79c.82,1.19,1.94,1.04,2.96,1.14l3.44.33ZM74.75,373.99l-1.46-2.49c-.48-.82-1.71-1.13-2.57-.83l.66,3.74,3.38-.42ZM70.82,376.14l-.44-3.86c-.05-.47-.23-1.05-.49-1.27s-1.32.09-1.35.28v12.53s2.4-.02,2.4-.02l-.12-7.65ZM95.84,383.48l.05-12.48-2.93.19c.74,3.1.71,5.29.28,8.15l-.08,4.18c.74.38,2.07.46,2.69-.04ZM85.71,375.77c-.52-1.46-2.17-2.83-3.77-2.3-2.1.69-2.83,2.81-2.81,4.92s1.15,4.6,3.41,4.75,4.61-3.31,3.16-7.37ZM90.47,375.07c-1.44-.62-2.78-.91-4.72-1.05l.63,1.46,3.87-.23.23-.18ZM79.36,381.82c-1.22-2.22-1.28-3.92-.6-6.23-2.51-.71-4.91-.84-7.32-.49.59,3.8,4.2,6.58,7.91,6.71ZM91.98,380.22c.39-.45.58-1.79.66-2.46-1.53-1.79-3.77-2.38-6-1.55.5,2.19.32,4.19-1.03,5.97,2.15.48,4.78-.1,6.37-1.96ZM78.53,383.45c-2.71-1.25-4.34-2.54-6.2-4.34l.05,4.4,6.15-.06ZM91.98,383.55l-.15-2.06-3.96,1.99,4.11.07ZM72.18,384.03l-.03,8.01,19.83.06.03-8.01-19.83-.06Z"/>
    <path d="M123.78,384.37l-.04,7.35c0,.78-.73,1.17-1.47,1.16l-18.75-.04c-.46-.05-.84-1.3-.84-1.78l.03-6.63-3.79-.03v-13.95s3.71,0,3.71,0l.19-3.78c2.71-.97,7.07-.78,6.19-1.52l-.67-.56c-.35-.3-.83-.88-.9-1.27-.07-.45.97-1.33,1.43-1.21.86.24,1.74.65,2.36.98,1.32-1.34,4.8-1.06,5.42-.27.52.66.71,1.37.88,2.6l4.71.87c.45.08,1.04.16,1.22.4s.29.96.3,1.28l.05,2.45,3.73-.06-.08,2.14c.67.57,1.25,1.32,1.29,2.06.03.6-.89,1.66-1.04,2.24-.62,2.5-.17,4.9-.19,7.63l-3.73-.07ZM123.17,372.28l-.22-5.21-7.99-1.3.69-1.98,1.17,1.54c.1-.65-.35-1.66-.99-2.52l-1.05.67c-2.39-2.39-4.5,2.11-6.46,5.47.7-.09,1.66-.25,2.1-.52l1.48-.88c.32-.19,1.12.37,1.37.52l1.09-3.46c.37.37.49.46.49.67,0,.15-.11.93,0,1.02,1.62,1.35,4.59,3.87,5.54,6.26.89.41,1.96.19,2.78-.28ZM107.43,369.16l1.5-2.76-5.35.57-.36,4.16c1.37-.9,2.48-1.35,4.21-1.97ZM119.86,372.89c-.98-1.53-1.91-2.98-3.19-4.1l-2.25-1.96-.59,2.89c-.21,1.05-.24,2.22.2,3.05,1.98-.65,3.28,1.28,5.84.11ZM105.51,372.33l-.24-.82c-.03-.11.4-.23.65-.3l.94,1.78,4.29-3.01,1.84-1.04c-.24-.4-1.14-.88-1.39-.62l-.9.94c-2.22.4-4.28.84-6.31,1.84-1.19,1.89-1.75,4.08-1.48,6.14l3.13-1.81c.42-.89-.62-2.3-1.7-2.73l1.15-.37ZM106.95,375.01c2.09-1.25,3.32-1.7,5.45-2l.73-3.26-2.34,1.36-4.27,2.74.44,1.17ZM102.27,383.77l-.07-12.77-2.72.17v12.67s2.79-.06,2.79-.06ZM126.75,371.09l-2.09-.14c-.36-.02-.68,1.41-.33,1.48l1.25.23c.28.05,1.24.05,1.23-.23l-.06-1.34ZM119.72,376.67c1.36.82,2.98,1.34,2.82,3.12-1.49-1.83-3.22-2.88-5.22-2.55.35,2.03-.03,3.39-.89,5.1,1.92-.38,4.13-.63,5.47-1.79l5.79-5c.38-.33.36-1.68-.06-2.01-3.21-.47-6.81-.12-10,.5-.42.08-1.39-.35-1.81-.56-.16-.08-.32.54-.15.62l.66.28c.32.13.64.65.98,1.33.85-1.16,2.39-1.39,3.87-.76,1.98.84,4.24-.55,4.26.13l.03,1.09c-1.85-.53-4.07-.65-5.76.5ZM114.66,383.02c2.49-1.91,2.91-5.77.98-7.97-.67-.76-1.62-1.36-2.31-1.37-.92,0-1.82.44-2.43,1.22-1.61,2.03-1.63,4.94-.21,7.1.82,1.25,2.6,2.08,3.98,1.02ZM109.43,376.01l1.09-2.02-2.99,1.41,1.9.61ZM110.2,382.6c-1.15-1.81-1.46-3.66-1.04-5.84-1.69-1.04-4.37-.64-5.59,1.11-.72,1.04.07,2.64.95,3.33,1.61,1.26,3.54,1.66,5.67,1.4ZM124.26,383.87l2.56-.12-.07-6.23-2.49,2.03v4.32ZM123.17,383.55l-.15-2.85c.04-.06-.71.64-.98.72l-6.49,2.01,7.61.13ZM110.98,383.42c-3.21-.33-5.77-.11-7.56-2.35l-.08,2.47,7.64-.12ZM103.29,384.03v8.1s19.88,0,19.88,0v-8.1s-19.88,0-19.88,0Z"/>
    <path d="M40.5,384.55l-3.77-.17-.03-10.88-.04-3c1.27-.04,1.75-.26,2.52-.97l1.06-.69c.31-.2.25-1.11.32-1.71.15-1.44,3.2-.05,4.63-2.52.32-.54,1.32-.96,1.95-.79s1.07.76,1.43,1.66l3.21.03c.5-.75.9-1.2,1.73-1.75l.49-1.64c.26-.29,1.32-.41,1.78-.23s.72,1.42,1.13,1.75l3.02,2.41c.95.76,1.31.81,1.68,2.07.18.61.84,1.72,1.18,2.3l2.45.04v13.95s-3.85.12-3.85.12l-.13,8.32-19.62.03c-.33-.03-1.19-.61-1.18-1l.05-7.32ZM61.75,369.77c-1.52-2.42-3.7-4.22-5.61-5.86l-.67-1.38c-.12-.24-.78-.09-1.18.12l1.38,2.23c.66,2.42,1.61,4.87,3.45,6.53l2.63-1.64ZM45.98,367.16c.43-.59.98-1.21,1.68-1.85.08.11-.39-.54-.56-.77-.35-.49-1.99.62-2.61,2.88.63.03,1.29-.04,1.49-.26ZM57.91,373.71l-.45-2.72-2.58-6.12c-.18-.43-1.13-.59-1.42-.37-.24.18-.74.77-.78,1.07l-.83,6.69c.42,1.1,1.91.92,2.75,1.02l3.32.42ZM42.1,371.58c2.68-.66,5.37-2.29,6.45-5.07-.41-.32-1.31-.13-1.43.18l-.51,1.25c-2.51.4-5.89.7-6.55,2.29l2.05,1.35ZM51.21,371.87l.63-5.7-2.76.03.43,3.31.57,2.73c.04.18.59.51.74.4s.36-.5.39-.77ZM43.49,367.76c.23-.06.73-.79.55-.82l-.95-.16c-.35-.06-1.36.1-1.55.4s-.4.89-.48,1.25l2.44-.67ZM44.19,373.55l5.1-.36c-.11-1.66-.36-3.47-.79-4.93-1.33,1.39-2.42,2.37-3.82,3.21-.39.37-.59,1.76-.49,2.08ZM61.43,374.38l.5-3.86c-1.55.38-3.34,1.92-2.67,3.81.26.75,2.09.69,2.17.04ZM41.71,374.02c.42-1.52-.9-2.98-2.57-3.25l.51,3.6,2.06-.35ZM39.76,377.31c-1.25-2.63-.93-6.3-1.35-6.28l-1.09.07.03,12.7,2.61-.11-.2-6.39ZM64.64,383.48v-12.39s-2.1-.16-2.1-.16l-.47,3.14v9.72c1.04.08,1.95.03,2.57-.31ZM54.14,375.85c-.54-1.57-2.16-3.02-3.86-2.5-2.22.68-2.97,3.07-2.86,5.16.13,2.21,1.12,3.95,3.29,4.61,3.22-.54,4.55-3.98,3.43-7.28ZM57.8,374.66c-1.88-.6-2.31-.6-3.91-.81l.96,1.66,2.95-.85ZM47.65,381.72c-1.11-2.18-1.06-4.04-.55-6.23-2.34-.61-4.79-.94-7.38-.54.87,3.94,4.05,6.54,7.93,6.77ZM60.3,380.32l1.13-4.75c-2.48-.24-4.36-.11-6.56.59.76,2.28.25,4.2-.96,6.05,2.51.41,4.55-.38,6.39-1.89ZM47.01,383.45c-2.46-1.27-4.28-2.36-5.94-3.91v4s5.94-.09,5.94-.09ZM60.64,383.53l.06-2.44-4.9,2.4,4.84.04ZM40.94,384.06v8.06s19.85,0,19.85,0v-8.06s-19.85,0-19.85,0Z"/>
    <path d="M227.13,293.35c3.48,2.16,4.83,7.36,2.53,8.3l-1,.41c-.27.11-.97-.53-.97-.71.24-.72.39-1.72.13-2.21-.39-.72-1.33-1.28-2.16-1.34.4,2.98-.6,5.78-2.29,8.17l1.53,3.4c.35.77.29,1.78-.2,2.23-.92.86-1.7.21-2.61-.19-1.24-.54-2.22-.98-3.12-1.96l-2.78.97c-1.51.53-2.73,1.08-4.4,1.16-.91.04-2.5-.34-2.86-1.24-1.29-3.16-1.08-6.41-.32-9.6-.64-.45-1.39-1.12-1.53-1.73-.15-.7.06-1.44.54-2.2l2.73,2.18,1.1,6.38,1.98-2.38-.77-3.37c.73-1.64,1.35-2.24,3.14-2.92-.2-1.21-1.76-2.35-.37-3.6,1.1-.99,1.86.22,2.7.43,1.12.28,2.03.49,3.11.97,1.83-.62,3.8-1.19,5.88-1.15ZM209.62,299.18l-1.89-1.19c-.09,1.4.69,1.78,1.61,2.37-.63,3.01-1.12,6.04.05,9.18,2.15-2.93,1.04-6.62.23-10.37ZM222.42,301.66c-1.2-4.02-6.47-5.31-8.21-3.35-.61.69-.91,1.95-.63,2.85.83,2.68,3.53,4.33,6.29,4.18,1.75-.09,3.12-1.78,2.55-3.68ZM220.62,294.94c-1.88-1.12-3.62-.15-4.07,1.71.64.23,1.89.19,2.34-.21l1.73-1.5ZM212.24,310.9l-1.43-2.86-1.03,2.6,2.46.26ZM219.28,306.15c-2.28-.21-3.88-1.12-5.44-2.72l-2.56,3.88,1.61,3.39c2.84-.39,4.91-1.97,6.39-4.56ZM224.18,299.01c1.02-1.55,1.21-3.14.34-4.81-2.13.51-3.99,1.45-5.48,2.97,1.93.85,3.01,1.97,3.89,3.73l1.24-1.9ZM226.8,294.12l-.93,2.94c2.02.38,2.32,1.7,2.91,3.12l.38.92c.32.76,2.66-3.69-2.37-6.97ZM223.24,301.6c.28,2.31-1.09,3.6-2.82,4.48l-2.17,2.94c4.04-1.61,6.83-5.37,6.77-9.97l-1.78,2.56ZM222.78,306.72l-3.03,2.49c.46.67,1.43,1.33,2.22,1.22.6-.09,1.78-.75,1.87-1.42.11-.87-.66-2.1-1.06-2.29Z"/>
    <path d="M179.02,276.03c1.07-.33,1.85.41,2.04,1.61,3.1.22,5.58,1.73,7.48,4.11,1.17,1.46,1.36,2.85.23,4.41-1.44,1.97-2.97,3.97-5.15,5.12-4.28,2.25-8.89,2.7-13.12.72-1.19-.56-1.46-1.32-1.86-2.5-.68-2.01-1.77-4.08-1.42-6.29.24-1.52,1-3.11,1.08-4.55.04-.72-.1-1.45.24-1.93.29-.41,1.22-.66,1.83-.51l.2,3.87c1.06.28,1.28.8,2.1,1.48l2.63,2.2c.82-1.39,1.41-2.04,2.92-2.36l-.02-2.2c-.72-.82-1.98-.56-2.09-1.62-.04-.35.61-.84.97-.95l1.94-.59ZM169.72,282.63l.03-5.27c.11-.3.14-.45-.62-.46l-.14,1.88-.86,3.99,1.59-.15ZM182.92,278.61l-4.04-.74c-.51-.09-1.09-1.3-2.13-.41,1.79,1.03,3.39,1.85,5.38,2.54l.78-1.38ZM174.61,284.02l-2.7-1.78-1.13-.04c-.27,0-.51.93-.39,1.18l1.26,2.59,2.97-1.95ZM171.12,286.38l-1.59-2.94c-.46.17-1.51.89-1.51,1.38,0,1.01.47,2.52.85,3.4l2.25-1.83ZM183.03,281.67c-.52-.7-.93-1.12-1.22-1.21l-2.93-.91.1,1.83c1.43.35,2.45.44,4.05.29ZM183.36,288.78c.55-2.58-.89-5.16-3.13-6.35-.77-.41-2-.47-2.6-.18-.76.37-1.58,1.23-1.74,2.09-.51,2.74.91,5.54,3.43,6.64.77.34,1.99.42,2.59.1.65-.33,1.23-1.34,1.44-2.31ZM186.94,281.34c-.64-.98-1.65-1.91-2.61-1.86-.44.02-1.34.8-1.19,1.13.67,1.39,1.87,1.03,3.8.74ZM178.29,291.43c-1.8-1.43-2.63-3.13-3.28-5.22-3.15.48-6.42,1.95-5.42,4,.86,1.76,6,3.07,8.7,1.22ZM188.93,284.46c-.09-1.06-.56-1.76-1.43-2.3-1.69.07-3.17.41-4.69,1.23,1.08,1.79,1.49,3.35,1.38,5.45,2.21-.84,3.61-2.3,4.74-4.39Z"/>
    <path d="M378.78,336.2c.02,1.12-.9,1.66-2.11,1.52-1.06,2.92-3.2,4.89-6.01,6.06-1.73.72-3.12.53-4.31-1-1.5-1.92-3-3.95-3.5-6.36-.98-4.73-.15-9.29,2.92-12.81.86-.99,1.67-1.04,2.92-1.1,2.12-.1,4.41-.57,6.44.37,1.39.65,2.72,1.81,4.08,2.3.68.24,1.42.3,1.79.76.32.39.3,1.36-.01,1.9l-3.77-.87c-.56.94-1.12,1.01-2,1.61l-2.84,1.93c1.11,1.17,1.57,1.92,1.47,3.46l2.12.58c.99-.47,1.09-1.75,2.14-1.56.35.06.64.82.64,1.2l.03,2.03ZM375,325.44l5.05,1.48c.26.19.4.26.61-.47l-1.77-.65-3.6-1.93-.29,1.57ZM375.23,339.23l1.83-3.68c.23-.46,1.55-.68.98-1.93-1.48,1.43-2.71,2.75-3.92,4.48l1.11,1.13ZM372.32,329.75l2.46-2.11.35-1.08c.08-.26-.75-.75-1.03-.7l-2.83.5,1.05,3.39ZM371.01,325.75l3.27-.72c-.03-.49-.44-1.69-.91-1.83-.97-.29-2.56-.25-3.5-.11l1.14,2.67ZM372.26,338.5c.82-.3,1.33-.58,1.5-.84l1.69-2.57-1.79-.41c-.73,1.28-1.09,2.23-1.4,3.82ZM365.34,336.86c2.33,1.24,5.2.56,6.97-1.26.61-.63,1-1.79.88-2.45-.15-.84-.75-1.86-1.53-2.25-2.5-1.25-5.58-.65-7.33,1.47-.54.65-.95,1.79-.81,2.47.14.71.95,1.56,1.82,2.02ZM371.5,342.35c1.11-.34,2.29-1.06,2.51-2,.1-.43-.4-1.51-.76-1.45-1.52.26-1.5,1.52-1.75,3.45ZM364.19,331.25c1.87-1.34,3.73-1.67,5.92-1.71.4-3.16-.1-6.71-2.35-6.31-1.93.34-4.61,4.92-3.57,8.02ZM367.95,343.4c1.04.21,1.85-.06,2.6-.74.4-1.65.48-3.16.11-4.85-2.02.55-3.63.51-5.62-.18.2,2.35,1.22,4.11,2.91,5.77Z"/>
    <path d="M138.43,278.15c.89,1.08,1.24,2.39.91,3.67s-1.52,2.17-2.89,2.47l-3.56.77c-2.36.51-4.55-.01-6.9-.86-6.42-2.32-10.2-10.11-7.27-13.15,2.11-2.19,4.38-.59,4.81-2,.28-.9,1.15-1.42,1.85-1.29,1.06.2,1.55,1.02,1.25,2.22l3.9,1.02c.93.24,2.24-.38,2.62.95l-.14,1.59c.69-1.16.9-1.68,1.6-2.22.55-.42,1.96.09,2.21.88l-.58,3.29,2.18,2.64ZM136.13,273.13c.06-.19.03-.74-.12-.86s-.67-.31-.93-.35c-.48-.08-1.25,1.3-1.01,1.74.21.38.65.69,1.51,1.35l.55-1.87ZM122.58,272.6c2.78.76,4.95.37,7.45.19l2.55-.18c-.19-.44-.55-1.07-.87-1.02l-1.24.2c-2.76-.76-5.09-1.37-8.14-1.52l.24,2.33ZM121.75,273.23l-.17-2.87c-1.53.3-2.23.87-2.9,2.11l3.08.76ZM134.58,278.51l2.1-1.63c-1.8-1.54-3.44-3.54-6.16-3.47,1.93,1.22,3.34,2.69,4.05,5.1ZM129.86,283.15c2.48-1.8,3.14-5.38,1.55-7.81-.92-1.4-2.47-1.68-3.81-.79-2.35,1.55-3.22,4.78-2.08,7.38.74,1.67,2.71,2.39,4.33,1.22ZM124.56,281.56c-.49-2.3-.4-4.15.96-6.02-2.26-1.26-4.47-2.14-7.06-2.24-.16,3.95,2.51,7.37,6.09,8.25ZM138.81,280.44l-1.43-2.82-1.78.9,3.21,1.92ZM138.52,281.27c-1.6-1.32-3.43-2.22-5.46-2.83-.11,2.14-1.07,3.54-2.4,5.21,3.23.97,7.81.16,7.85-2.39Z"/>
    <path d="M55.43,130.02l.5-1.87c.12-.45,4.07-1.57,4.3.01l-1.28,1.85,1.09,2.04c1.25-.47,2.45-.16,3.64.78l1.4-3.17c.39-.9.12-1.52,1.01-2.31l-.84-1.99-5.21,1.72-4.12-11.39,8.6-2.81,4.01,11.1-1.21.97,3.1,3.39c1.48,1.62,1.48,4.07,1.81,6.1.24,1.52.24,2.58-.73,3.75-4.55,5.44-12.22,6.71-18.51,2.99-.72-.43-2.01-1.15-2.04-2.11-.07-2.6.87-5.17,2.48-7.13.43-.53,1.83-1.28,2-1.91ZM66.76,123.63l1.07.29-3.78-10.23-7.26,2.43,3.65,10.14,4.3-1.43c.07-.56.21-1.54.58-1.54.32,0,.98.2,1.44.32ZM69.39,128.43l-2.28-2.85c-.41-.51-.28-1.73-1.67-1.61,1.38,2.86,2.52,6.41,3.95,4.46ZM56.09,132.32l3.4-4.26c-1.29-.61-1.26.81-1.75,1.2l-2.83,2.26c-.14.12.01.68.17.79s.88.17,1.01,0ZM67.9,133.11l-.02-2.84c0-.41-1.14-1.15-1.44-.82-.86.95-1.42,2.05-1.95,3.31l3.41.35ZM71.46,133.67l-.73-3.59-2.21-.05.1,3.21,2.84.42ZM58.54,133.17c.3-.18.8-.92.65-1.19l-.69-1.27-2.63,2.96.64.7,2.03-1.2ZM63.42,141.17c1.92-2.37,1.73-5.57-.2-7.78-.58-.66-1.85-1.05-2.63-.84-3.02.82-3.78,5.74-1.85,8.31.55.73,1.63,1.34,2.3,1.39.71.05,1.83-.39,2.39-1.08ZM54.66,135.11c.38-.15.72-1.31.5-1.65s-1.51-.33-1.81-.03c-.55.56-1,1.68-1.28,2.73l2.59-1.05ZM71.75,135.95c.1-2.34-3.43-2.12-6.78-1.18.83,2.24.63,4.16-.55,6.14,3.27.63,7.24-3.08,7.32-4.95ZM58.14,141.42c-1.22-1.91-1.29-3.37-1.12-5.54-1.56.16-3.53.18-4.78,1.23-1.12.94-.47,2.68.67,3.27,1.64.86,3.34,1.29,5.23,1.04Z"/>
    <path d="M150.1,135.32c1.1.21,1.44,1.22,1.06,2.38,2.65,1.63,4.15,4.12,4.73,7.11.36,1.84-.11,3.16-1.85,4.02-2.19,1.08-4.47,2.14-6.94,2.14-4.83,0-9.12-1.73-11.95-5.45-.8-1.05-.68-1.85-.49-3.08.33-2.09.33-4.43,1.66-6.23.91-1.23,2.33-2.29,3.07-3.53.37-.62.58-1.33,1.11-1.6.45-.23,1.39-.02,1.86.4l-1.62,3.52c.81.74.76,1.3,1.17,2.28l1.32,3.17c1.37-.86,2.2-1.15,3.69-.74l1-1.96c-.26-1.06-1.49-1.42-1.1-2.41.13-.33.93-.46,1.3-.39l1.99.38ZM138.8,136.85l2.47-4.65c.24-.22.33-.34-.34-.69l-1,1.61-2.61,3.13,1.48.6ZM152.36,139.42l-3.23-2.53c-.41-.32-.36-1.66-1.69-1.35,1.11,1.74,2.15,3.21,3.59,4.74l1.33-.86ZM142.48,140.35l-1.57-2.83-.99-.56c-.24-.14-.88.58-.89.87l-.08,2.87,3.53-.35ZM138.3,140.83l-.05-3.35c-.49-.07-1.75.09-1.98.52-.48.89-.76,2.45-.82,3.41l2.84-.58ZM151.03,142.18c-.13-.86-.3-1.42-.52-1.64l-2.17-2.17-.76,1.67c1.1.98,1.96,1.52,3.46,2.14ZM148.03,148.63c1.68-2.03,1.6-4.98.18-7.08-.49-.73-1.55-1.34-2.22-1.36-.85-.02-1.97.36-2.51,1.05-1.72,2.2-1.76,5.33-.04,7.48.53.66,1.57,1.29,2.25,1.29.73,0,1.72-.62,2.34-1.38ZM154.66,143.7c-.11-1.16-.57-2.46-1.45-2.86-.4-.19-1.56.09-1.58.45-.05,1.54,1.18,1.78,3.02,2.41ZM142.31,148.62c-.93-2.1-.88-3.99-.48-6.14-3.01-1.03-6.59-1.25-6.66,1.03-.06,1.96,3.89,5.5,7.14,5.11ZM154.97,147.38c.42-.98.32-1.82-.2-2.7-1.53-.72-3-1.11-4.73-1.09.13,2.09-.23,3.66-1.31,5.47,2.35.27,4.27-.36,6.24-1.69Z"/>
    <path d="M92.36,85.85c-1.12-.85-1.76-2.04-1.72-3.37s.99-2.46,2.25-3.07l3.29-1.56c2.18-1.04,4.43-1.03,6.91-.74,6.78.79,12.24,7.51,10.08,11.14-1.56,2.62-4.13,1.58-4.23,3.04-.06.94-.8,1.64-1.51,1.67-1.08.05-1.74-.64-1.73-1.87l-4.03-.1c-.96-.02-2.09.88-2.77-.32l-.23-1.58c-.41,1.29-.5,1.84-1.06,2.52-.44.53-1.93.36-2.36-.36l-.19-3.33-2.73-2.07ZM95.74,90.21c-.01.2.14.73.32.81s.72.15.98.13c.48-.03.92-1.55.59-1.92-.29-.32-.79-.52-1.78-.97l-.11,1.95ZM109.06,87.64c-2.88-.1-4.9.77-7.3,1.52l-2.44.76c.29.39.78.91,1.08.79l1.16-.48c2.86.1,5.27.17,8.27-.38l-.77-2.22ZM109.72,86.83l.82,2.75c1.42-.64,1.97-1.35,2.35-2.71l-3.17-.04ZM96.03,84.62l-1.67,2.07c2.1,1.09,4.16,2.66,6.79,1.97-2.16-.75-3.87-1.86-5.11-4.04ZM99.56,79.03c-2.01,2.32-1.83,5.96.27,7.95,1.21,1.15,2.79,1.08,3.89-.1,1.94-2.05,2.05-5.39.34-7.66-1.1-1.46-3.19-1.71-4.5-.2ZM105.08,79.37c1,2.13,1.34,3.94.44,6.08,2.49.71,4.84,1.06,7.38.57-.74-3.88-4.13-6.6-7.82-6.64ZM91.46,83.71l2.04,2.41,1.53-1.28-3.56-1.14ZM91.56,82.84c1.86.92,3.85,1.38,5.96,1.51-.38-2.11.24-3.69,1.14-5.62-3.37-.21-7.64,1.63-7.1,4.12Z"/>
    <g>
      <path d="M327.67,84.21c-.75.25-2.09-.1-2.85-.2-4.55-.59-8.35-2.26-11.9-5.22-.56-.47-2.11-1.28-1.9-2.11l1.04-4.06c-.91-.27-1.38-.46-1.77-.82.85-2.2,2.02-4.26,2.65-6.42l1.85-6.33c1.29-.62,1.79-1.54,2.18-2.9.1-.16.63-.65.78-.5l.95.95c.01.17.06-.58.07-.98l3.35-7.4,17.53,7.56c.37.16,1.2.59,1.24.94s-.24.89-.46,1.36l-2.95,6.5,1.09.13c.17.02.63.23.55.38l-.49.92c-1.22,2.3-2.11,4.65-3.17,7.1l-3,6.91c-.14.33-.25,1.41-.61,1.26l-1.77-.73-2.41,3.66ZM338.05,58.73c.97-.05,1.62-.41,1.85-1.04.27-.77-.31-1.16-1.1-1.52l-3.88-1.72-12.41-5.38-1.31,2.74,1.29-.34c.19-.05.47.58.58.83l14.98,6.44ZM331.68,60.59c-.19-1.38-.27-1.87.07-2.16.36-.31,1.15-.54,1.5-.41,1.43.52.54,2.26,1.41,3.57.42.63,1.65,1.15,2.22.89l1.34-3.05-16.18-6.96c-.48.82-1.07,1.98-1.17,2.63-.04.29.65.98.92.86,1.32-.56,1.33-1.36,2.5-1.52.42-.06,1.51.63,1.49,1.06-.04.67-.8,1.38-1.54,1.95l7.44,3.15ZM317.25,61.14c2.56-.96,4.18-2.22,5.94-3.98l1.84-1.25-.51-.78c-.13-.2-.81.18-.95.37-.55.79-1.33.97-2.28,1.15-2.12.41-3.91,1.6-5.79,2.73l1.75,1.75ZM336.12,68.1c-.22-3.14-1.4-5.25-2.74-7.56l.15-1.37c.03-.31-1.03-.53-1.34-.39l.47,2.03c-.12,2.67-.01,4.98,1.29,7.44l2.17-.16ZM323.54,65.96c.22-.21.53-.9.61-1.26l1.23-5.56-2.37-.89-1.82,1.6-2.64,4.86c2.36.25,4.28,1.95,5,1.26ZM331.14,70.18c.23-1.3,1.07-3.27.99-4.51l-.24-3.74-5.96-2.59c-.07,3.13-1.58,5.67-1.22,6.9.55,1.92,2.31-4.53,4.49-5.28l-2.4,4.23c-.28.49-.64,1.48-.48,1.92.46,1.24,2.75,1.35,4.83,3.07ZM316.99,64.15l.86.38,2.13-3.82-2.3.86-.69,2.58ZM316.22,64.13c1.26-1.81-.03-3.48-1.11-4.05l-.92,3.19,2.03.86ZM333.83,72.5l2.28-3.56c-1.99-.34-3.47.51-4.19,2.34l1.91,1.21ZM324.78,75.05c1.75-1.67,2.47-3.86,1.86-6.07-.26-.97-1.15-1.96-2.08-2.14-.8-.15-1.93.09-2.66.62-2.73,2.01-3.63,6.36-1.25,8.27,1.17.94,3.06.34,4.13-.68ZM330.97,71.17c-1.15-1.04-2-1.56-3.42-2.23-.1.65.01,1.44.33,1.63l3.09.6ZM320.58,67.6l-2.76-2.07-3.77-1.35c-.75,3.77.91,7.58,4.53,9.2-.2-2.2.69-4.16,2-5.78ZM330.65,77.01c1.32-.72,2.03-2.49,2.78-3.74-1.1-.78-2.11-1.32-3.35-1.54l-2.54-.45c-.47,2.44-1.53,3.79-3.27,5.24,1.9.97,4.4,1.58,6.38.49ZM332.06,79.5l2.07-5.33c-5.34,5.67-2.81,7.22-2.07,5.33ZM313.18,67.38l-1.7,3.54c-.13.27.06.89.3.99.65.26,2.46-2.78,1.4-4.52ZM316.84,74.42l-2.93-4.3-.71,1.92,3.64,2.38ZM329.53,79.78l-6.56-1.24c-.24.1-.99.43-.98.43l-3.39-1.43.18-.61c.04-.13-.44-.37-.56-.46l-5.31-3.93-1.04,3.13,4.96,3.39c2.24,1.53,4.96,2.32,7.56,2.86l3.61.75,1.53-2.88ZM319.4,81.92c2.18.85,4.26,1.08,6.68,1.7.1.02.37-.18.8-.57-3.5-.52-6.97-1.21-10.15-3.21-1.42-.9-2.62-2.07-4.41-2.59,2,1.95,4.41,3.63,7.08,4.67Z"/>
      <path d="M338.68,51.32l1.25,2.26-.12.61c-.03.16-.67,0-.81-.05l-13.63-5.91c1.17-1.69,3.27-1.31,4.84-1.66l.95-.21c.24-.05.59.54.84.65l4.1,1.8,1.04.09,1.55,2.42ZM336.53,50.49c-.03-.21-.25-.83-.35-.87l-5.1-2.12-.76.2,6.21,2.79ZM338.41,53.26l.11-.63-11.57-4.94.2.66,11.27,4.91Z"/>
    </g>
    <rect class="cls-1" x="37.35" y="98.88" width="149.19" height="29.21"/>
    <rect class="cls-1" x="305.63" y="-19.38" width="7.48" height="66.75" transform="translate(323.36 -295.38) rotate(90)"/>
    <rect class="cls-1" x="77.44" y="304.32" width="7.48" height="66.75" transform="translate(418.88 256.51) rotate(90)"/>
    <rect class="cls-1" x="373.11" y="1.23" width="7.48" height="66.75" transform="translate(628.59 -247.95) rotate(126.45)"/>
    <rect class="cls-1" x="3.45" y="3.57" width="29.56" height="24.08"/>
    <path d="M12.57,258.57c0-2.54,1.43-3.14,3.83-3.14h3.13c3.79,0,4.28.82,4.26,3.27h-2.66v-.24c0-.62-.46-.8-1.25-.8h-2.9c-1.4,0-1.67.66-1.67,1.74v.94c0,1.26.26,1.74,1.52,1.74h2.84c1.2,0,1.56-.12,1.56-1.2h2.66v.82c0,1.46-.53,2.62-3.2,2.62h-4.29c-2.4,0-3.83-.6-3.83-3.14v-2.59Z"/>
    <rect class="cls-1" x="3.45" y="247.58" width="29.56" height="24.08"/>
    <path d="M12.57,339.59c0-2.54,1.43-3.14,3.83-3.14h3.13c3.79,0,4.28.82,4.26,3.27h-2.66v-.24c0-.62-.46-.8-1.25-.8h-2.9c-1.4,0-1.67.66-1.67,1.74v.94c0,1.26.26,1.74,1.52,1.74h2.84c1.2,0,1.56-.12,1.56-1.2h2.66v.82c0,1.46-.53,2.61-3.2,2.61h-4.29c-2.4,0-3.83-.6-3.83-3.14v-2.59Z"/>
    <rect class="cls-1" x="3.45" y="328.59" width="29.56" height="24.08"/>
    <path d="M305.13,255.53h9.5v2.01h-6.84v1.39h6.48v1.8h-6.48v1.39h6.99v2.09h-9.66v-8.68Z"/>
    <rect class="cls-1" x="295.08" y="247.58" width="29.56" height="24.08"/>
    <path d="M247.22,11.52h8.04c2.66,0,3.6.88,3.6,3.02v2.64c0,2.15-.94,3.02-3.6,3.02h-8.04v-8.68ZM249.89,17.97h4.73c1.14,0,1.58-.32,1.58-1.56v-1.18c0-1.24-.44-1.56-1.58-1.56h-4.73v4.29Z"/>
    <rect class="cls-1" x="238.12" y="3.57" width="29.56" height="24.08"/>
    <rect class="cls-1" x="137.47" y="263.33" width="24.28" height="2.07" transform="translate(-114.76 413.97) rotate(-90)"/>
    <rect class="cls-1" x="147.9" y="263.33" width="24.28" height="2.07" transform="translate(-104.33 424.41) rotate(-90)"/>
    <rect class="cls-1" x="157.63" y="263.33" width="24.28" height="2.07" transform="translate(-94.6 434.14) rotate(-90)"/>
    <rect class="cls-1" x="138.67" y="262.4" width="42.74" height="4.74"/>
    <rect class="cls-1" x="188.42" y="253.07" width="37.46" height="23.44"/>
    <rect class="cls-1" x="299" y="283.13" width="22.34" height="64.13"/>
    <rect class="cls-1" x="383.51" y="303.63" width="22.34" height="64.13"/>
    <rect class="cls-1" x="299" y="407" width="22.34" height="64.13"/>
    <rect class="cls-1" x="197.4" y="265.93" width="3.49" height="6.34"/>
    <rect class="cls-1" x="205.4" y="265.93" width="3.49" height="6.34"/>
    <rect class="cls-1" x="213.4" y="265.93" width="3.49" height="6.34"/>
    <rect class="cls-1" x="385.78" y="345.74" width="12.25" height="10.21" transform="translate(41.06 742.76) rotate(-90)"/>
    <rect class="cls-1" x="385.78" y="317.62" width="12.25" height="10.21" transform="translate(69.18 714.64) rotate(-90)"/>
    <rect class="cls-1" x="292.44" y="301.77" width="20.66" height="3.73" transform="translate(-.86 606.4) rotate(-90)"/>
    <rect class="cls-1" x="304.76" y="320.98" width="5.52" height="8.38" transform="translate(71.69 705.56) rotate(-104.8)"/>
    <rect class="cls-1" x="308.83" y="323.91" width="5.52" height="8.38" transform="translate(73.97 713.16) rotate(-104.8)"/>
    <rect class="cls-1" x="292.44" y="422.2" width="20.66" height="3.73" transform="translate(-121.3 726.84) rotate(-90)"/>
    <rect class="cls-1" x="292.44" y="450.97" width="20.66" height="3.73" transform="translate(-150.06 755.6) rotate(-90)"/>
  </g>
</svg>